<svg width="2601" height="1235" xmlns="http://www.w3.org/2000/svg" xmlns:xlink="http://www.w3.org/1999/xlink" xml:space="preserve" overflow="hidden"><g transform="translate(-2494 -620)"><path d="M3348.4 1371.74 3330.1 1425.43 3421.42 1425.43 3439.72 1371.74ZM2705.35 1130.11 3000.81 1130.11 2883.97 1473.76C2865.67 1527.46 2868.97 1570.41 2893.88 1602.63 2921.07 1638.43 2963.32 1656.33 3020.62 1656.33L3208.64 1656.33 3518.54 1645.59 3787.22 1629.48 3665.93 1828.15 3318.43 1838.89 3039.09 1838.89C2881.51 1838.89 2779.08 1803.09 2731.79 1731.5L2544.78 1855 2494 1688.54 2659.44 1581.15 2754.37 1301.93 2646.93 1301.93ZM3491.51 840.152 3668.78 840.152 3654.18 883.109 3756.25 883.109 3710.58 1017.35 3608.52 1017.35 3593.91 1060.3 3695.98 1060.3 3644.86 1210.65 3268.82 1210.65 3319.94 1060.3 3416.64 1060.3 3431.24 1017.35 3334.55 1017.35 3380.21 883.109 3476.9 883.109ZM3252.79 657.587 4031.73 657.587 3752.39 1479.13C3724.41 1561.46 3674.6 1602.63 3602.98 1602.63L3484.79 1602.63 3492.26 1548.93 3288.13 1548.93 3275.37 1586.52 3135.7 1586.52 3252.54 1242.87 3628.58 1242.87 3568.31 1420.07C3588.57 1423.65 3603.56 1411.12 3613.3 1382.48L3805.01 818.674 3364.51 818.674 3236.76 1194.54C3173.47 1380.69 3088.39 1520.3 2981.51 1613.37L2891.11 1468.39C2975.21 1389.64 3044.04 1271.51 3097.59 1114ZM4230.78 657.017 5095 657.017 5026.49 858.577C4825.68 1019.83 4667.18 1175.31 4550.99 1325.04 4439.91 1470.94 4342.74 1643.7 4259.5 1843.34L4011.76 1843.34C4116.91 1624.51 4229.49 1440.22 4349.52 1290.49 4461.81 1152.28 4611.94 1004.47 4799.91 847.059L4166.15 847.059ZM3018.44 620C3039.87 630.739 3067.77 654.007 3102.12 689.804 3136.54 725.601 3157.24 754.239 3164.24 775.717L2991.33 936.805C2989.09 911.746 2970.76 881.319 2936.35 845.522 2905.57 809.725 2876.5 784.667 2849.14 770.348Z" fill="#FFFFFF" fill-rule="evenodd"/></g></svg>