<svg width="5705" height="1235" xmlns="http://www.w3.org/2000/svg" xmlns:xlink="http://www.w3.org/1999/xlink" xml:space="preserve" overflow="hidden"><defs><clipPath id="clip0"><rect x="501" y="766" width="5705" height="1235"/></clipPath></defs><g clip-path="url(#clip0)" transform="translate(-501 -766)"><path d="M5162.52 1720.64 5225.76 1720.64 5204.25 1783.91 5141.01 1783.91ZM5534.59 1709.48 5683.4 1709.48 5658.11 1783.91 5509.3 1783.91ZM5071.32 1627.6 4971.46 1921.6 5094.22 1921.6 5108.11 1880.66 5294.12 1880.66 5380.09 1627.6ZM5436.06 1605.28 5328.59 1921.6 5462.51 1921.6 5472.63 1891.83 5621.43 1891.83 5611.32 1921.6 5741.52 1921.6 5849 1605.28ZM5125.49 1501.08 5093.87 1594.11 5372.88 1594.11 5404.5 1501.08ZM3684.75 1471.3 3803.8 1471.3 3774.73 1556.9 3655.69 1556.9ZM3420.62 1471.3 3543.39 1471.3 3510.6 1556.9 3391.56 1556.9ZM4634.72 1456.42 4768.65 1456.42 4753.48 1501.08 4619.55 1501.08ZM4363.15 1456.42 4497.08 1456.42 4481.91 1501.08 4347.98 1501.08ZM5722.75 1374.55 5782.27 1374.55 5755.76 1452.7 5681.36 1452.7ZM5169.73 1370.82 5136.88 1467.58 5415.89 1467.58 5448.74 1370.82ZM4685.29 1307.56 4819.22 1307.56 4805.33 1348.5 4671.4 1348.5ZM4413.73 1307.56 4547.65 1307.56 4533.76 1348.5 4399.83 1348.5ZM3610.41 1274.07 3583.84 1352.22 3334.6 1352.22 3265.08 1556.9 3149.75 1556.9 3109.29 1675.98 3418.07 1675.98C3374.82 1715.68 3333.3 1742.97 3293.5 1757.86 3228.05 1782.67 3152.31 1797.55 3066.28 1802.51L3074.13 1932.76C3175.04 1920.36 3257.42 1900.51 3321.28 1873.22 3390.92 1843.45 3458.6 1797.55 3524.32 1735.53 3551.99 1800.03 3597.54 1848.41 3660.98 1880.66 3713.72 1907.96 3769.83 1925.32 3829.32 1932.76L3936.79 1802.51C3779 1785.15 3686.69 1742.97 3659.87 1675.98L3976.09 1675.98 4016.54 1556.9 3904.94 1556.9 3974.46 1352.22 3725.21 1352.22 3751.77 1274.07ZM5178.04 1236.85 5142.64 1341.05 5496.05 1341.05 5531.45 1236.85ZM5249.59 1102.88 5214.19 1207.08 5508.08 1207.08 5543.48 1102.88ZM5585.74 1087.99 5545.29 1207.08 5686.65 1207.08 5657.82 1259.18 5553.66 1259.18 5514.42 1374.55 5592.54 1374.55 5547.44 1452.7 5443.27 1452.7 5404.04 1568.06 5917.42 1568.06 5956.65 1452.7 5889.69 1452.7 5955.43 1259.18 5788.02 1259.18 5820.58 1207.08 5995.42 1207.08 6035.88 1087.99ZM3529.9 1061.94 3509.67 1121.49 3301.35 1121.49 3260.89 1240.57 3469.22 1240.57 3446.49 1307.56 3576.69 1307.56 3599.42 1240.57 3781.71 1240.57 3758.98 1307.56 3889.19 1307.56 3911.91 1240.57 4123.96 1240.57 4164.42 1121.49 3952.37 1121.49 3972.6 1061.94 3842.39 1061.94 3822.17 1121.49 3639.88 1121.49 3660.11 1061.94ZM4474.93 1050.78 4340.72 1095.44 4364.9 1188.47 4323.98 1188.47 4177.32 1620.16 4441.45 1620.16 4423.72 1672.26 4062.87 1672.26 4022.41 1791.35 4383.27 1791.35 4337.75 1925.32 4475.4 1925.32 4520.91 1791.35 4885.48 1791.35 4925.94 1672.26 4561.37 1672.26 4579.1 1620.16 4843.23 1620.16 4989.88 1188.47 4937.8 1188.47C4961.05 1171.11 4991.43 1140.09 5028.94 1095.44L4905.19 1054.5C4847.64 1128.93 4808.91 1173.59 4788.99 1188.47L4669.95 1188.47 4739.53 1169.86 4731.62 1050.78 4591.3 1080.55 4599.27 1188.47 4443.02 1188.47 4505.16 1169.86ZM3233.65 1008 6206 1008 5871.35 1990 2899 1990Z" fill="#FFFFFF" fill-rule="evenodd"/><path d="M1355.07 1517.74 1336.78 1571.43 1428.06 1571.43 1446.36 1517.74ZM712.272 1276.11 1007.62 1276.11 890.822 1619.76C872.531 1673.46 875.831 1716.41 900.722 1748.63 927.908 1784.43 970.14 1802.33 1027.42 1802.33L1215.37 1802.33 1525.14 1791.59 1793.72 1775.48 1672.48 1974.15 1325.11 1984.89 1045.88 1984.89C888.361 1984.89 785.969 1949.09 738.702 1877.5L551.762 2001 501 1834.54 666.376 1727.15 761.273 1447.93 653.874 1447.93ZM1498.12 986.152 1675.33 986.152 1660.73 1029.11 1762.76 1029.11 1717.12 1163.35 1615.09 1163.35 1600.49 1206.3 1702.52 1206.3 1651.42 1356.65 1275.53 1356.65 1326.62 1206.3 1423.28 1206.3 1437.88 1163.35 1341.22 1163.35 1386.87 1029.11 1483.53 1029.11ZM1259.5 803.587 2038.14 803.587 1758.9 1625.13C1730.93 1707.46 1681.15 1748.63 1609.55 1748.63L1491.41 1748.63 1498.88 1694.93 1294.82 1694.93 1282.07 1732.52 1142.45 1732.52 1259.25 1388.87 1635.14 1388.87 1574.9 1566.07C1595.15 1569.65 1610.14 1557.12 1619.87 1528.48L1811.51 964.674 1371.18 964.674 1243.47 1340.54C1180.21 1526.69 1095.16 1666.3 988.319 1759.37L897.953 1614.39C982.026 1535.64 1050.83 1417.51 1104.36 1260ZM2237.12 803.017 3101 803.017 3032.52 1004.58C2831.79 1165.82 2673.35 1321.31 2557.2 1471.04 2446.16 1616.94 2349.03 1789.7 2265.82 1989.34L2018.18 1989.34C2123.28 1770.51 2235.83 1586.22 2355.81 1436.49 2468.05 1298.28 2618.12 1150.47 2806.02 993.059L2172.5 993.059ZM1025.24 766C1046.66 776.739 1074.55 800.007 1108.89 835.804 1143.29 871.601 1163.99 900.239 1170.98 921.717L998.136 1082.8C995.899 1057.75 977.579 1027.32 943.178 991.522 912.413 955.724 883.354 930.667 856.001 916.347Z" fill="#FFFFFF" fill-rule="evenodd"/></g></svg>